<?xml version="1.0" encoding="utf-8"?>
<!-- Generator: Adobe Illustrator 28.0.0, SVG Export Plug-In . SVG Version: 6.00 Build 0)  -->
<svg version="1.0" id="Capa_1" xmlns="http://www.w3.org/2000/svg" xmlns:xlink="http://www.w3.org/1999/xlink" x="0px" y="0px"
	 viewBox="0 0 1224 792" style="enable-background:new 0 0 1224 792;" xml:space="preserve">
<style type="text/css">
	.st0{fill-rule:evenodd;clip-rule:evenodd;fill:#0A64C0;}
</style>
<path class="st0" d="M481.92,391.07c0-20.29,3.16-37.34,9.43-51.15c4.64-10.15,11.06-19.27,19.15-27.33
	c8.09-8.06,16.95-14.04,26.58-17.97c12.83-5.24,27.63-7.88,44.39-7.88c30.36,0,54.59,9.13,72.83,27.33
	c18.2,18.25,27.3,43.59,27.3,76.07c0,32.2-9.05,57.4-27.1,75.56c-18.05,18.21-42.24,27.29-72.45,27.29
	c-30.6,0-54.97-9.03-73.03-27.15C490.97,447.77,481.92,422.85,481.92,391.07L481.92,391.07z M524.73,389.72
	c0,22.56,5.41,39.66,16.19,51.33c10.77,11.63,24.47,17.47,41.04,17.47c16.62,0,30.22-5.79,40.9-17.33
	c10.63-11.58,15.95-28.91,15.95-52.03c0-22.84-5.17-39.89-15.56-51.1c-10.34-11.26-24.09-16.86-41.28-16.86
	c-17.14,0-30.98,5.7-41.47,17.05C530,349.65,524.73,366.79,524.73,389.72L524.73,389.72z M768.45,489.38V290.35h37.04l77.77,133.38
	V290.35h35.37v199.02h-38.23l-76.58-130.83v130.83H768.45L768.45,489.38z M1120.25,416.27v-33.63h82.08v79.4
	c-7.96,8.2-19.53,15.38-34.71,21.64c-15.13,6.21-30.48,9.31-46.05,9.31c-19.75,0-36.95-4.35-51.64-13.11
	c-14.65-8.76-25.69-21.31-33.08-37.57c-7.39-16.26-11.08-34-11.08-53.14c0-20.76,4.13-39.19,12.36-55.36
	c8.27-16.12,20.32-28.54,36.2-37.15c12.14-6.63,27.18-9.91,45.22-9.91c23.45,0,41.79,5.19,54.98,15.57
	c13.15,10.42,21.64,24.74,25.43,43.08l-38,7.51c-2.64-9.78-7.65-17.51-15-23.21c-7.3-5.65-16.45-8.48-27.45-8.48
	c-16.63,0-29.87,5.56-39.68,16.73c-9.81,11.16-14.74,27.7-14.74,49.62c0,23.67,4.97,41.42,14.91,53.23
	c9.99,11.81,23,17.74,39.15,17.74c7.96,0,15.97-1.67,23.97-4.96c8.05-3.29,14.91-7.32,20.67-12.05v-25.25H1120.25L1120.25,416.27z
	 M517.1,208.39c-16.62-13.39-34.45-25.01-53.28-34.59c-33.18,13.29-63.6,35.92-89.28,70.64c-46.59,63-47.48,129.47-40.44,142.18
	c2.22-60.02,62.22-139.21,124.97-163.33C478.45,215.83,497.87,210.9,517.1,208.39L517.1,208.39z M348.64,142.89
	c25.25,1.28,49.72,5.89,73.07,13.47c-21.79,15.34-42.03,34.12-60.3,56.27c-52.53,63.73-68.83,184.7-34.92,250.23
	c-15.22-9.33-54.44-80.96-42.7-176.5C291.18,226.31,314.65,179.35,348.64,142.89L348.64,142.89z M21.67,463.93
	c55.97,108.03,145.18,188.82,284.34,185.06c107.52-2.91,180.15-58.16,187.93-76.53c-66.77,48.37-203.14,50.47-282.3,3.03
	C119.27,520.11,65.18,433.79,54.99,333.96C36.88,373.52,25.26,417.44,21.67,463.93L21.67,463.93z M91.42,271.67
	c21.78-29.83,47.84-55.57,77.12-76.05c-21.74,82.26-9.37,169.02,39.14,248.57c48.05,78.79,169.78,140.28,251.38,128.48
	c-15.42,12.65-105.4,27.84-201.97-19.55C137.11,494.25,94.1,387.75,91.42,271.67L91.42,271.67z M219.12,166.99
	c25.76-11.41,53.18-19.09,81.75-22.49c-39.64,52.47-59.31,117.83-54.64,190.38c5.25,81.35,75.23,179.41,143.9,203.67
	c-17.25,3.56-93.87-21.48-149.96-98.18C174.21,350.15,179.72,254.87,219.12,166.99z"/>
</svg>
